Coordinates
version=1
nRows=5
nColumns=63
inDegrees=yes

Units are S.I. units (second, meters, Newtons, ...)
If the header above contains a line with 'inDegrees', this indicates whether rotational values are in degrees (yes) or radians (no).

endheader
time	pelvis_tilt	pelvis_list	pelvis_rotation	pelvis_tx	pelvis_ty	pelvis_tz	hip_flexion_r	hip_adduction_r	hip_rotation_r	knee_angle_r	knee_angle_r_beta	ankle_angle_r	subtalar_angle_r	mtp_angle_r	hip_flexion_l	hip_adduction_l	hip_rotation_l	knee_angle_l	knee_angle_l_beta	ankle_angle_l	subtalar_angle_l	mtp_angle_l	L5_S1_Flex_Ext	L5_S1_Lat_Bending	L5_S1_axial_rotation	L4_L5_Flex_Ext	L4_L5_Lat_Bending	L4_L5_axial_rotation	L3_L4_Flex_Ext	L3_L4_Lat_Bending	L3_L4_axial_rotation	L2_L3_Flex_Ext	L2_L3_Lat_Bending	L2_L3_axial_rotation	L1_L2_Flex_Ext	L1_L2_Lat_Bending	L1_L2_axial_rotation	L1_T12_Flex_Ext	L1_T12_Lat_Bending	L1_T12_axial_rotation	Abs_r3	Abs_r2	Abs_r1	Abs_t1	Abs_t2	neck_flexion	neck_bending	neck_rotation	arm_flex_r	arm_add_r	arm_rot_r	elbow_flex_r	pro_sup_r	wrist_flex_r	wrist_dev_r	arm_flex_l	arm_add_l	arm_rot_l	elbow_flex_l	pro_sup_l	wrist_flex_l	wrist_dev_l
      3.76666667	    -14.34135496	     16.89653758	    -64.39729437	     -0.04262240	      0.94566682	     -0.81274093	     47.64903671	     -9.96362515	      0.00000000	     60.37449002	      1.05373364	      0.00000000	      0.00000000	      0.00000000	     47.64903671	     -9.96362515	      0.00000000	     60.37449002	      1.05373364	      0.00000000	      0.00000000	      0.00000000	     -0.06506539	     -1.06904231	     -1.20809246	     -0.12083294	     -1.42182628	     -1.28359824	     -0.10689593	     -2.59926948	     -1.28359824	     -0.07436323	     -2.59926948	     -1.05708090	     -0.06041972	     -2.17999109	     -0.98157512	     -0.03717836	     -1.65594655	     -0.90606934	     -0.46475558	    -12.09322047	     -6.71904783	      0.00000000	      0.00000000	    -21.26595141	     11.48224312	     -8.54087888	    -32.57764579	    -37.31263812	    -77.74399095	    119.52958959	     89.99559364	      0.00000000	      0.00000000	     -0.91807723	    -47.75625566	    -11.76054434	     51.24476104	     89.99559364	      0.00000000	      0.00000000
      3.78333333	    -13.71014255	     15.41160379	    -65.60306572	     -0.03383258	      0.94315753	     -0.79770212	     47.65637621	     -9.96430527	      0.00000000	     60.37292201	      1.05370627	      0.00000000	      0.00000000	      0.00000000	     47.65637621	     -9.96430527	      0.00000000	     60.37292201	      1.05370627	      0.00000000	      0.00000000	      0.00000000	     -0.06589825	     -0.76706607	     -1.37993056	     -0.12237964	     -1.02019787	     -1.46617622	     -0.10826423	     -1.86504443	     -1.46617622	     -0.07531511	     -1.86504443	     -1.20743924	     -0.06119311	     -1.56420112	     -1.12119358	     -0.03765426	     -1.18818534	     -1.03494792	     -0.47070459	     -8.67720476	     -7.67475980	      0.00000000	      0.00000000	    -21.85866476	      8.81590892	     -6.51810362	    -30.26588571	    -40.33287390	    -74.98071112	    117.37657385	     89.99559364	      0.00000000	      0.00000000	     -7.81511975	    -46.13184081	    -18.62076750	     52.37449872	     89.99559364	      0.00000000	      0.00000000
      3.80000000	    -12.85390750	     13.99981935	    -67.16885837	     -0.02587883	      0.94186150	     -0.78274727	     47.66732574	     -9.96530020	      0.00000000	     60.37058617	      1.05366550	      0.00000000	      0.00000000	      0.00000000	     47.66732574	     -9.96530020	      0.00000000	     60.37058617	      1.05366550	      0.00000000	      0.00000000	      0.00000000	     -0.06303929	     -0.49525740	     -1.48794967	     -0.11707026	     -0.65869234	     -1.58094653	     -0.10356725	     -1.20416884	     -1.58094653	     -0.07204760	     -1.20416884	     -1.30195596	     -0.05853828	     -1.00992889	     -1.20895911	     -0.03602065	     -0.76715371	     -1.11596225	     -0.45028334	     -5.60245074	     -8.27552969	      0.00000000	      0.00000000	    -22.79000040	      5.47291938	     -4.00299834	    -27.28705292	    -43.24451170	    -72.24846657	    114.94639927	     89.99559364	      0.00000000	      0.00000000	    -12.97789904	    -44.92733351	    -23.44889431	     51.93891559	     89.99559364	      0.00000000	      0.00000000
      3.81666667	    -11.38026498	     12.77949655	    -69.22719423	     -0.01969310	      0.94213620	     -0.76791056	     47.67592360	     -9.96606528	      0.00000000	     60.36875482	      1.05363354	      0.00000000	      0.00000000	      0.00000000	     47.67592360	     -9.96606528	      0.00000000	     60.36875482	      1.05363354	      0.00000000	      0.00000000	      0.00000000	     -0.06251363	     -0.31953889	     -1.31983275	     -0.11609405	     -0.42498672	     -1.40232230	     -0.10270363	     -0.77692685	     -1.40232230	     -0.07144682	     -0.77692685	     -1.15485366	     -0.05805015	     -0.65160370	     -1.07236411	     -0.03572029	     -0.49496574	     -0.98987456	     -0.44652857	     -3.61468781	     -7.34051381	      0.00000000	      0.00000000	    -23.76823871	      3.89470647	     -3.09690617	    -25.38910721	    -44.82379787	    -70.89877650	    112.59872148	     89.99559364	      0.00000000	      0.00000000	    -15.32574002	    -44.98464835	    -25.52834561	     50.50443310	     89.99559364	      0.00000000	      0.00000000
      3.83333333	     -9.22907489	     11.90859320	    -71.57849828	     -0.01548183	      0.94391090	     -0.75364658	     47.68424906	     -9.96679212	      0.00000000	     60.36698398	      1.05360263	      0.00000000	      0.00000000	      0.00000000	     47.68424906	     -9.96679212	      0.00000000	     60.36698398	      1.05360263	      0.00000000	      0.00000000	      0.00000000	     -0.06104529	     -0.25898756	     -0.78953291	     -0.11336721	     -0.34445346	     -0.83887872	     -0.10029131	     -0.62970236	     -0.83887872	     -0.06976866	     -0.62970236	     -0.69084130	     -0.05668666	     -0.52812744	     -0.64149549	     -0.03488128	     -0.40117173	     -0.59214968	     -0.43604041	     -2.92971910	     -4.39114518	      0.00000000	      0.00000000	    -24.69281048	      3.99423735	     -3.96605520	    -26.12234190	    -44.43424761	    -72.13248759	    110.63067621	     89.99559364	      0.00000000	      0.00000000	    -14.45815279	    -46.83807451	    -24.17243827	     48.59402589	     89.99559364	      0.00000000	      0.00000000
